<?xml version="1.0" encoding="UTF-8"?>
<!DOCTYPE svg PUBLIC "-//W3C//DTD SVG 1.1//EN" "http://www.w3.org/Graphics/SVG/1.1/DTD/svg11.dtd">
<svg xmlns="http://www.w3.org/2000/svg" version="1.1" width="1330px" height="560px" style="shape-rendering:geometricPrecision; text-rendering:geometricPrecision; image-rendering:optimizeQuality; fill-rule:evenodd; clip-rule:evenodd" xmlns:xlink="http://www.w3.org/1999/xlink">
<g><path style="opacity:0.978" fill="#00f" d="M 801.5,14.5 C 804.187,14.3359 806.854,14.5026 809.5,15C 805.752,37.0692 802.418,59.2358 799.5,81.5C 812.5,81.5 825.5,81.5 838.5,81.5C 835.933,100.235 832.933,118.901 829.5,137.5C 815.5,137.5 801.5,137.5 787.5,137.5C 781.742,173.806 776.075,210.14 770.5,246.5C 771.215,261.884 779.215,269.218 794.5,268.5C 803.82,269.061 812.487,267.061 820.5,262.5C 820.833,263.333 821.167,264.167 821.5,265C 819.657,274.37 817.657,283.704 815.5,293C 815.833,293.5 816.167,294 816.5,294.5C 835.796,293.167 855.129,292.167 874.5,291.5C 864.282,221.528 854.282,151.528 844.5,81.5C 871.167,81.5 897.833,81.5 924.5,81.5C 926.651,127.561 929.484,173.561 933,219.5C 952.138,173.752 971.472,128.085 991,82.5C 1015.43,81.173 1039.93,81.173 1064.5,82.5C 1030.67,152.637 997.673,222.804 965.5,293C 1086.94,298.322 1205.27,320.155 1320.5,358.5C 1293.03,356.021 1265.36,353.521 1237.5,351C 1214.19,348.868 1190.86,347.535 1167.5,347C 1217.46,356.459 1266.8,368.459 1315.5,383C 1248.64,377.051 1181.64,373.051 1114.5,371C 1098.17,370.333 1081.83,370.333 1065.5,371C 1148.42,379.518 1229.76,395.851 1309.5,420C 937.794,384.276 575.294,426.776 222,547.5C 220.278,547.389 220.112,546.889 221.5,546C 285.315,508.427 351.981,476.76 421.5,451C 353.122,468.067 285.456,487.9 218.5,510.5C 217.833,510.333 217.167,510.167 216.5,510C 275.724,476.055 337.058,446.388 400.5,421C 335.73,436.531 271.73,455.031 208.5,476.5C 208.167,476.333 207.833,476.167 207.5,476C 340.633,398.947 482.966,345.947 634.5,317C 619.837,316.5 605.17,316.333 590.5,316.5C 599.685,259.223 609.352,202.056 619.5,145C 615.631,131.666 606.631,125.499 592.5,126.5C 585.274,126.722 578.274,128.055 571.5,130.5C 559.738,192.404 548.405,254.404 537.5,316.5C 512.5,316.5 487.5,316.5 462.5,316.5C 475.008,243.118 487.841,169.785 501,96.5C 547.128,74.5295 595.295,68.3629 645.5,78C 663.217,82.4254 677.383,91.9254 688,106.5C 693.846,116.762 696.18,127.762 695,139.5C 686.527,196.173 677.027,252.673 666.5,309C 666.833,309.833 667.167,310.667 667.5,311.5C 681.248,309.039 694.914,306.539 708.5,304C 699.779,295.723 694.945,285.556 694,273.5C 693.879,252.376 695.545,231.376 699,210.5C 708.767,147.835 720.267,85.5015 733.5,23.5C 756.367,20.976 779.033,17.976 801.5,14.5 Z M 287.5,480.5 C 528.205,357.933 783.205,310.099 1052.5,337C 1116.24,343.79 1179.24,354.79 1241.5,370C 958.576,349.448 679.909,375.114 405.5,447C 366.003,457.667 326.669,468.833 287.5,480.5 Z"/></g>
<g><path style="opacity:0.984" fill="#000" d="M 203.5,73.5 C 224.033,73.1909 244.367,75.0243 264.5,79C 268.477,79.7846 272.311,80.9513 276,82.5C 271.36,102.758 265.693,122.758 259,142.5C 241.193,130.671 221.693,126.504 200.5,130C 178.329,137.502 162.495,152.002 153,173.5C 145.299,190.007 141.965,207.34 143,225.5C 147.308,252.167 162.974,266.5 190,268.5C 207.601,267.076 224.268,262.409 240,254.5C 238.5,274.839 236.667,295.172 234.5,315.5C 206.442,324.428 177.776,326.928 148.5,323C 104.814,314.981 78.6476,289.148 70,245.5C 65.6129,210.544 70.2796,176.877 84,144.5C 103.074,108.688 132.574,86.5213 172.5,78C 182.907,75.966 193.241,74.466 203.5,73.5 Z"/></g>
<g><path style="opacity:0.985" fill="#000" d="M 371.5,73.5 C 388.254,72.9029 404.921,73.7362 421.5,76C 460.01,83.8785 478.176,107.378 476,146.5C 466.356,200.55 456.523,254.55 446.5,308.5C 440.205,311.878 433.538,314.378 426.5,316C 393.117,325.423 359.117,329.09 324.5,327C 266.221,320.64 243.721,288.807 257,231.5C 264.211,208.62 278.378,191.453 299.5,180C 331.417,164.383 365.083,157.55 400.5,159.5C 404.362,136.516 394.529,124.849 371,124.5C 345.335,126.625 320.502,132.292 296.5,141.5C 294.261,125.163 291.928,108.83 289.5,92.5C 289.57,91.2284 289.903,90.0617 290.5,89C 317.052,80.8 344.052,75.6333 371.5,73.5 Z M 384.5,200.5 C 386.924,200.192 389.257,200.526 391.5,201.5C 387.167,226.167 382.833,250.833 378.5,275.5C 364.302,281.283 350.302,280.783 336.5,274C 327.372,264.67 324.205,253.503 327,240.5C 332.382,224.783 342.882,213.95 358.5,208C 367.114,204.851 375.781,202.351 384.5,200.5 Z"/></g>
<g><path style="opacity:0.846" fill="#000" d="M 897.5,336.5 C 899.613,338.691 901.28,341.358 902.5,344.5C 906.239,345.218 909.905,345.552 913.5,345.5C 911.35,348.151 909.017,350.651 906.5,353C 913.056,362.771 911.556,364.604 902,358.5C 898.814,359.764 896.148,361.764 894,364.5C 894.077,360.771 893.91,357.104 893.5,353.5C 883.14,349.009 884.14,347.009 896.5,347.5C 896.724,343.821 897.058,340.154 897.5,336.5 Z"/></g>
<g><path style="opacity:0.824" fill="#000" d="M 958.5,336.5 C 959.376,336.369 960.043,336.702 960.5,337.5C 961.706,340.079 963.039,342.579 964.5,345C 968.194,345.278 971.861,345.278 975.5,345C 972.833,347.667 970.167,350.333 967.5,353C 969.702,356.183 971.035,359.35 971.5,362.5C 968.727,361.03 965.894,359.697 963,358.5C 960.367,360.296 957.867,362.296 955.5,364.5C 955.27,360.846 954.937,357.179 954.5,353.5C 944.14,349.009 945.14,347.009 957.5,347.5C 957.942,343.846 958.276,340.179 958.5,336.5 Z"/></g>
<g><path style="opacity:0.823" fill="#000" d="M 836.5,338.5 C 838.892,341.598 841.058,344.931 843,348.5C 845.796,347.789 848.63,347.122 851.5,346.5C 851.833,346.833 852.167,347.167 852.5,347.5C 850.35,350.151 848.017,352.651 845.5,355C 851.88,364.775 850.214,366.608 840.5,360.5C 837.979,363.414 834.979,365.247 831.5,366C 832.778,362.945 833.278,359.778 833,356.5C 829.911,355.04 827.078,353.207 824.5,351C 828.095,350.416 831.595,349.582 835,348.5C 835.61,345.173 836.11,341.839 836.5,338.5 Z"/></g>
<g><path style="opacity:0.825" fill="#000" d="M 775.5,343.5 C 776.376,343.369 777.043,343.702 777.5,344.5C 778.706,347.079 780.039,349.579 781.5,352C 785.157,351.892 788.823,351.892 792.5,352C 789.781,354.382 787.447,357.049 785.5,360C 786.697,362.894 788.03,365.727 789.5,368.5C 789.167,368.833 788.833,369.167 788.5,369.5C 785.749,367.707 782.916,366.041 780,364.5C 777.037,366.461 774.371,368.794 772,371.5C 772.289,367.793 772.122,364.126 771.5,360.5C 768.995,358.747 766.329,357.247 763.5,356C 766.769,354.937 770.102,354.104 773.5,353.5C 775.026,350.346 775.693,347.013 775.5,343.5 Z"/></g>
<g><path style="opacity:0.842" fill="#000" d="M 712.5,351.5 C 714.655,354.463 716.822,357.463 719,360.5C 722.121,359.464 725.287,359.297 728.5,360C 725.983,362.349 723.65,364.849 721.5,367.5C 727.833,377.167 726.167,378.833 716.5,372.5C 713.812,375.022 710.979,377.356 708,379.5C 708.437,375.867 708.77,372.2 709,368.5C 706.084,366.959 703.251,365.293 700.5,363.5C 703.905,362.711 707.239,361.711 710.5,360.5C 711.423,357.553 712.089,354.553 712.5,351.5 Z"/></g>
<g><path style="opacity:0.825" fill="#000" d="M 649.5,360.5 C 651.266,363.188 652.933,366.021 654.5,369C 658.177,369.108 661.843,369.108 665.5,369C 662.781,371.382 660.447,374.049 658.5,377C 659.697,379.894 661.03,382.727 662.5,385.5C 662.167,385.833 661.833,386.167 661.5,386.5C 658.749,384.707 655.916,383.041 653,381.5C 650.651,384.017 648.151,386.35 645.5,388.5C 645.432,384.872 645.099,381.205 644.5,377.5C 641.995,375.747 639.329,374.247 636.5,373C 639.753,371.964 643.086,371.297 646.5,371C 647.872,367.595 648.872,364.095 649.5,360.5 Z"/></g>
<g><path style="opacity:0.843" fill="#000" d="M 589.5,372.5 C 590.376,372.369 591.043,372.702 591.5,373.5C 592.706,376.079 594.039,378.579 595.5,381C 598.79,380.631 602.123,380.631 605.5,381C 603.167,383.333 600.833,385.667 598.5,388C 599.689,390.878 601.022,393.712 602.5,396.5C 602.167,396.833 601.833,397.167 601.5,397.5C 598.833,396.167 596.167,394.833 593.5,393.5C 590.849,395.65 588.349,397.983 586,400.5C 585.722,396.806 585.722,393.139 586,389.5C 583.084,387.959 580.251,386.293 577.5,384.5C 581.072,383.294 584.738,382.627 588.5,382.5C 588.616,379.14 588.949,375.807 589.5,372.5 Z"/></g>
<g><path style="opacity:0.826" fill="#000" d="M 522.5,389.5 C 523.376,389.369 524.043,389.702 524.5,390.5C 525.706,393.079 527.039,395.579 528.5,398C 532.139,397.722 535.806,397.722 539.5,398C 536.781,400.382 534.447,403.049 532.5,406C 533.57,408.806 534.903,411.473 536.5,414C 532.958,413.743 529.624,412.577 526.5,410.5C 523.849,412.65 521.349,414.983 519,417.5C 519.108,413.843 519.108,410.177 519,406.5C 516.084,404.959 513.251,403.293 510.5,401.5C 514.105,400.461 517.772,399.795 521.5,399.5C 522.051,396.193 522.384,392.86 522.5,389.5 Z"/></g>
</svg>
